<svg class="background-images" width="322" height="411" viewBox="0 0 322 411" fill="none" xmlns="http://www.w3.org/2000/svg">
  <path d="M23.2714 162.424L141.144 40.7351L312.885 83.3882L194.325 205.039L23.2714 162.424Z" fill="#C5E9DA" stroke="#36B37E" stroke-width="2.29137" stroke-miterlimit="10" stroke-linejoin="round" />
  <path d="M194.326 205.039L312.885 83.3885L349.506 250.633L239.227 369.573L194.326 205.039Z" fill="white" stroke="#36B37E" stroke-width="2.29137" stroke-miterlimit="10" stroke-linejoin="round" />
  <path d="M194.326 205.038L122.12 268.489L239.227 369.572L194.326 205.038Z" fill="white" stroke="#36B37E" stroke-width="2.29137" stroke-miterlimit="10" stroke-linejoin="round" />
  <path d="M122.12 268.49L23.2715 162.424L194.325 205.039L122.12 268.49Z" fill="white" stroke="#36B37E" stroke-width="2.29137" stroke-miterlimit="10" stroke-linejoin="round" />
  <path d="M239.227 369.573L67.1419 323.18L122.12 268.49L239.227 369.573Z" fill="#C5E9DA" stroke="#36B37E" stroke-width="2.29137" stroke-miterlimit="10" stroke-linejoin="round" />
  <path d="M23.2715 162.424L67.1419 323.18L122.12 268.49L23.2715 162.424Z" fill="white" stroke="#36B37E" stroke-width="2.29137" stroke-miterlimit="10" stroke-linejoin="round" />
  <path d="M158.118 236.792L179.98 217.747L158.118 236.792Z" fill="#644DF2" />
  <path d="M175.226 200.329L179.98 217.748L194.326 205.039L175.226 200.329Z" fill="#36B37E" />
  <path d="M175.226 200.329L291.61 78.1449L262.112 70.8613L146.205 193.141L175.226 200.329Z" fill="#36B37E" />
  <path d="M124.396 187.592L240.78 65.4076L211.282 58.124L95.3754 180.404L124.396 187.592Z" fill="#36B37E" />
  <path d="M124.396 187.592L142.036 252.23L158.118 236.792L146.205 193.14L124.396 187.592Z" fill="#36B37E" />
  <path d="M95.3755 180.404L118.284 264.35L67.8868 210.23L57.1196 170.775L95.3755 180.404Z" fill="#36B37E" />
  <path d="M57.1198 170.775L74.9562 153.506L40.3066 144.697L23.2715 162.424L57.1198 170.775Z" fill="#172B4D" />
  <path d="M111.686 163.326L128.301 145.713L90.5222 136.179L73.4298 153.697L111.686 163.326Z" fill="#172B4D" />
  <path d="M90.5223 136.179L108.359 118.909L73.7092 110.1L56.6168 127.618L90.5223 136.179Z" fill="#172B4D" />
  <path d="M117.523 273.127L122.12 268.49L84.7148 328.081L67.1419 323.18L117.523 273.127Z" fill="#172B4D" />
  <path d="M324.398 135.492L302.632 159.021L311.453 196.301L332.646 173.154L324.398 135.492Z" fill="#36B37E" />
  <path d="M309.601 188.688L315.692 216.791L294.498 239.938L287.93 211.739L216.776 287.305C216.776 287.305 236.249 358.659 239.227 369.572C242.205 380.485 349.563 250.842 349.563 250.842L330.966 166.171L309.601 188.688Z" fill="#172B4D" />
</svg>